<svg width="671" height="300" viewBox="0 0 671 300" fill="none" xmlns="http://www.w3.org/2000/svg">
<g clip-path="url(#clip0_95_26290)">
<rect x="-0.25" width="1224" height="300" fill="url(#paint0_linear_95_26290)"/>
<rect width="300" height="1006" transform="matrix(4.37114e-08 1 1 -4.37114e-08 -0.25 0)"/>
<g filter="url(#filter0_d_95_26290)">
<rect x="304.784" y="96" width="61.4314" height="24.4314" rx="12.2157" fill="white"/>
<path d="M316.657 105.929V109.637C316.657 110.303 316.455 110.837 316.052 111.24C315.649 111.638 315.104 111.837 314.416 111.837C313.729 111.837 313.183 111.638 312.78 111.24C312.383 110.843 312.184 110.308 312.184 109.637V105.929H313.07V109.661C313.07 110.085 313.189 110.421 313.425 110.668C313.661 110.915 313.992 111.039 314.416 111.039C314.841 111.039 315.171 110.915 315.407 110.668C315.649 110.421 315.77 110.085 315.77 109.661V105.929H316.657ZM318.519 111.716H317.487L319.357 108.75L317.656 105.929H318.68L320.009 108.186L321.388 105.929H322.371L320.638 108.782L322.475 111.716H321.436L319.985 109.338L318.519 111.716ZM325.899 111.716H325.012V105.929H327.172C327.838 105.929 328.359 106.088 328.735 106.405C329.112 106.717 329.3 107.16 329.3 107.735C329.3 108.148 329.176 108.506 328.929 108.806C328.682 109.107 328.338 109.309 327.897 109.411L329.469 111.716H328.405L326.963 109.54H325.899V111.716ZM325.899 106.671V108.798H327.116C327.529 108.798 327.846 108.71 328.067 108.532C328.292 108.35 328.405 108.084 328.405 107.735C328.405 107.391 328.292 107.128 328.067 106.945C327.846 106.762 327.529 106.671 327.116 106.671H325.899ZM331.812 111.796C331.194 111.796 330.695 111.592 330.313 111.184C329.937 110.77 329.749 110.228 329.749 109.556C329.749 108.922 329.94 108.398 330.321 107.984C330.708 107.571 331.197 107.364 331.788 107.364C332.427 107.364 332.932 107.595 333.303 108.057C333.679 108.514 333.832 109.089 333.762 109.782H330.579C330.611 110.217 330.732 110.555 330.942 110.797C331.157 111.039 331.442 111.16 331.796 111.16C332.097 111.16 332.347 111.082 332.546 110.926C332.75 110.77 332.887 110.553 332.957 110.273H333.762C333.66 110.746 333.435 111.119 333.086 111.393C332.742 111.662 332.317 111.796 331.812 111.796ZM331.772 107.976C331.444 107.976 331.176 108.089 330.966 108.315C330.757 108.535 330.63 108.844 330.587 109.242H332.9C332.879 108.849 332.769 108.541 332.57 108.315C332.371 108.089 332.105 107.976 331.772 107.976ZM338.013 110.442C338.013 110.861 337.854 111.192 337.537 111.434C337.225 111.675 336.788 111.796 336.223 111.796C335.665 111.796 335.222 111.667 334.894 111.409C334.571 111.146 334.389 110.784 334.346 110.322H335.127C335.144 110.585 335.251 110.794 335.45 110.95C335.649 111.106 335.912 111.184 336.24 111.184C336.535 111.184 336.766 111.133 336.933 111.031C337.105 110.929 337.191 110.778 337.191 110.579C337.191 110.407 337.131 110.276 337.013 110.185C336.9 110.093 336.71 110.021 336.441 109.967L335.748 109.838C334.926 109.677 334.515 109.277 334.515 108.637C334.515 108.261 334.665 107.955 334.966 107.719C335.267 107.482 335.665 107.364 336.159 107.364C336.669 107.364 337.086 107.493 337.408 107.751C337.73 108.003 337.91 108.35 337.948 108.79H337.166C337.145 108.532 337.045 108.334 336.868 108.194C336.691 108.049 336.457 107.976 336.167 107.976C335.904 107.976 335.694 108.03 335.538 108.138C335.383 108.24 335.305 108.382 335.305 108.565C335.305 108.737 335.361 108.868 335.474 108.96C335.587 109.051 335.775 109.121 336.038 109.169L336.763 109.306C337.596 109.457 338.013 109.835 338.013 110.442ZM340.658 111.796C340.04 111.796 339.541 111.592 339.159 111.184C338.783 110.77 338.595 110.228 338.595 109.556C338.595 108.922 338.786 108.398 339.167 107.984C339.554 107.571 340.043 107.364 340.634 107.364C341.273 107.364 341.778 107.595 342.149 108.057C342.525 108.514 342.678 109.089 342.608 109.782H339.425C339.457 110.217 339.578 110.555 339.788 110.797C340.003 111.039 340.287 111.16 340.642 111.16C340.943 111.16 341.193 111.082 341.391 110.926C341.596 110.77 341.733 110.553 341.802 110.273H342.608C342.506 110.746 342.281 111.119 341.931 111.393C341.588 111.662 341.163 111.796 340.658 111.796ZM340.618 107.976C340.29 107.976 340.021 108.089 339.812 108.315C339.602 108.535 339.476 108.844 339.433 109.242H341.746C341.725 108.849 341.614 108.541 341.416 108.315C341.217 108.089 340.951 107.976 340.618 107.976ZM346.061 111.716V111.055C345.787 111.549 345.33 111.796 344.691 111.796C344.245 111.796 343.887 111.681 343.619 111.45C343.355 111.213 343.224 110.899 343.224 110.507C343.224 109.658 343.871 109.234 345.166 109.234C345.419 109.234 345.684 109.25 345.964 109.282V108.968C345.964 108.661 345.886 108.425 345.73 108.258C345.574 108.092 345.354 108.009 345.069 108.009C344.774 108.009 344.537 108.092 344.36 108.258C344.188 108.425 344.097 108.659 344.086 108.96H343.345C343.366 108.481 343.533 108.097 343.844 107.807C344.161 107.512 344.57 107.364 345.069 107.364C345.596 107.364 346.004 107.506 346.294 107.791C346.59 108.07 346.737 108.465 346.737 108.976V111.716H346.061ZM343.997 110.483C343.997 110.703 344.073 110.88 344.223 111.015C344.379 111.149 344.588 111.216 344.852 111.216C345.19 111.216 345.459 111.119 345.658 110.926C345.862 110.727 345.964 110.464 345.964 110.136V109.79C345.711 109.757 345.462 109.741 345.214 109.741C344.403 109.741 343.997 109.988 343.997 110.483ZM348.64 109.532V111.716H347.826V107.445H348.583V108.347C348.734 108.052 348.957 107.818 349.252 107.646C349.553 107.474 349.878 107.388 350.227 107.388V108.234C349.749 108.207 349.365 108.304 349.075 108.524C348.785 108.739 348.64 109.075 348.64 109.532ZM352.54 111.804C351.954 111.804 351.476 111.598 351.105 111.184C350.735 110.77 350.549 110.236 350.549 109.58C350.549 108.935 350.737 108.406 351.114 107.993C351.49 107.573 351.965 107.364 352.54 107.364C353.066 107.364 353.507 107.528 353.862 107.856C354.222 108.183 354.439 108.624 354.514 109.177H353.66C353.617 108.839 353.496 108.573 353.297 108.379C353.099 108.181 352.849 108.081 352.548 108.081C352.199 108.081 351.917 108.218 351.702 108.492C351.492 108.766 351.388 109.129 351.388 109.58C351.388 110.037 351.492 110.402 351.702 110.676C351.917 110.945 352.199 111.079 352.548 111.079C352.849 111.079 353.099 110.982 353.297 110.789C353.496 110.596 353.62 110.327 353.668 109.983H354.514C354.445 110.547 354.232 110.993 353.878 111.321C353.523 111.643 353.077 111.804 352.54 111.804ZM356.148 109.306V111.716H355.334V105.929H356.148V108.13C356.459 107.619 356.894 107.364 357.453 107.364C357.899 107.364 358.254 107.504 358.517 107.783C358.78 108.057 358.912 108.447 358.912 108.952V111.716H358.098V109.226C358.098 108.855 358.017 108.573 357.856 108.379C357.7 108.181 357.472 108.081 357.171 108.081C356.886 108.081 356.645 108.194 356.446 108.42C356.247 108.64 356.148 108.935 356.148 109.306Z" fill="#787777"/>
<path d="M244.854 153.431L243.974 150.771H238.934L238.034 153.431H234.214L239.534 139.071H243.674L248.934 153.431H244.854ZM241.494 143.231L239.954 147.791H242.994L241.494 143.231ZM253.595 153.431H250.175V142.671H253.315V143.991C254.135 143.031 255.015 142.471 256.415 142.471C257.775 142.471 258.855 143.051 259.455 144.131C260.375 143.091 261.335 142.471 262.915 142.471C265.055 142.471 266.555 143.891 266.555 146.511V153.431H263.135V147.571C263.135 146.331 262.635 145.551 261.655 145.551C260.795 145.551 260.075 146.151 260.075 147.591V153.431H256.655V147.571C256.655 146.331 256.155 145.551 255.175 145.551C254.295 145.551 253.595 146.151 253.595 147.591V153.431ZM274.99 153.431V152.391C274.23 153.251 273.29 153.631 271.91 153.631C269.67 153.631 268.17 152.291 268.17 150.251C268.17 148.151 269.87 147.011 272.95 147.011C273.53 147.011 274.07 147.051 274.53 147.131V146.611C274.53 145.671 273.99 145.151 273.03 145.151C272.09 145.151 271.53 145.671 271.41 146.611H268.33C268.53 144.111 270.39 142.471 273.05 142.471C276.01 142.471 277.75 144.071 277.75 146.791V153.431H274.99ZM271.39 150.151C271.39 150.851 271.87 151.271 272.71 151.271C273.85 151.271 274.53 150.731 274.53 149.851V149.171C274.01 149.071 273.61 149.031 273.17 149.031C272.01 149.031 271.39 149.411 271.39 150.151ZM289.062 153.431H279.642V150.611L284.662 145.671H279.522V142.671H288.942V145.551L283.862 150.431H289.062V153.431ZM295.681 153.631C292.501 153.631 290.061 151.131 290.061 148.051C290.061 144.971 292.501 142.471 295.681 142.471C298.861 142.471 301.301 144.971 301.301 148.051C301.301 151.131 298.861 153.631 295.681 153.631ZM295.681 150.571C296.741 150.571 297.741 149.731 297.741 148.051C297.741 146.371 296.741 145.551 295.681 145.551C294.621 145.551 293.621 146.371 293.621 148.051C293.621 149.731 294.621 150.571 295.681 150.571ZM306.29 147.771V153.431H302.87V142.671H306.01V143.971C306.85 143.031 307.85 142.471 309.21 142.471C311.33 142.471 312.83 143.891 312.83 146.511V153.431H309.41V147.651C309.41 146.291 308.93 145.551 307.89 145.551C307.05 145.551 306.29 146.151 306.29 147.771ZM325.039 149.051H323.219V153.431H319.439V139.071H325.039C328.799 139.071 331.059 140.751 331.059 143.971C331.059 147.211 328.799 149.051 325.039 149.051ZM325.019 142.251H323.219V145.871H325.019C326.519 145.871 327.299 145.111 327.299 144.011C327.299 142.891 326.519 142.251 325.019 142.251ZM336.114 148.471V153.431H332.694V142.671H335.834V144.571C336.654 143.311 338.354 142.591 340.074 142.591V146.151C337.654 145.911 336.114 146.091 336.114 148.471ZM345.266 140.171C345.266 141.291 344.366 142.111 343.066 142.111C341.766 142.111 340.866 141.291 340.866 140.171C340.866 139.031 341.766 138.211 343.066 138.211C344.366 138.211 345.266 139.031 345.266 140.171ZM344.806 153.431H341.386V142.671H344.806V153.431ZM350.47 153.431H347.05V142.671H350.19V143.991C351.01 143.031 351.89 142.471 353.29 142.471C354.65 142.471 355.73 143.051 356.33 144.131C357.25 143.091 358.21 142.471 359.79 142.471C361.93 142.471 363.43 143.891 363.43 146.511V153.431H360.01V147.571C360.01 146.331 359.51 145.551 358.53 145.551C357.67 145.551 356.95 146.151 356.95 147.591V153.431H353.53V147.571C353.53 146.331 353.03 145.551 352.05 145.551C351.17 145.551 350.47 146.151 350.47 147.591V153.431ZM370.425 153.611C367.105 153.611 364.885 151.371 364.885 148.031C364.885 144.811 367.205 142.471 370.405 142.471C373.965 142.471 376.345 145.371 375.725 148.911H368.425C368.605 150.271 369.245 150.951 370.345 150.951C371.305 150.951 371.945 150.551 372.245 149.771H375.665C375.005 152.231 373.105 153.611 370.425 153.611ZM370.325 144.991C369.305 144.991 368.705 145.571 368.465 146.771H372.065C372.025 145.691 371.345 144.991 370.325 144.991ZM394.781 139.071L389.661 153.431H385.541L380.461 139.071H384.561L387.721 149.011L390.981 139.071H394.781ZM399.797 140.171C399.797 141.291 398.897 142.111 397.597 142.111C396.297 142.111 395.397 141.291 395.397 140.171C395.397 139.031 396.297 138.211 397.597 138.211C398.897 138.211 399.797 139.031 399.797 140.171ZM399.337 153.431H395.917V142.671H399.337V153.431ZM400.901 148.051C400.901 144.931 402.801 142.471 405.701 142.471C406.821 142.471 407.781 142.871 408.621 143.671V139.071H412.041V153.431H408.901V152.211C408.021 153.131 406.961 153.631 405.701 153.631C402.801 153.631 400.901 151.131 400.901 148.051ZM404.461 148.051C404.461 149.731 405.481 150.551 406.521 150.551C407.581 150.551 408.581 149.731 408.581 148.031C408.581 146.311 407.561 145.551 406.521 145.551C405.481 145.551 404.461 146.331 404.461 148.051ZM419.136 153.611C415.816 153.611 413.596 151.371 413.596 148.031C413.596 144.811 415.916 142.471 419.116 142.471C422.676 142.471 425.056 145.371 424.436 148.911H417.136C417.316 150.271 417.956 150.951 419.056 150.951C420.016 150.951 420.656 150.551 420.956 149.771H424.376C423.716 152.231 421.816 153.611 419.136 153.611ZM419.036 144.991C418.016 144.991 417.416 145.571 417.176 146.771H420.776C420.736 145.691 420.056 144.991 419.036 144.991ZM430.837 153.631C427.657 153.631 425.217 151.131 425.217 148.051C425.217 144.971 427.657 142.471 430.837 142.471C434.017 142.471 436.457 144.971 436.457 148.051C436.457 151.131 434.017 153.631 430.837 153.631ZM430.837 150.571C431.897 150.571 432.897 149.731 432.897 148.051C432.897 146.371 431.897 145.551 430.837 145.551C429.777 145.551 428.777 146.371 428.777 148.051C428.777 149.731 429.777 150.571 430.837 150.571Z" fill="black"/>
<path d="M300.883 178.431H298.279V168.379H300.883C302.46 168.379 303.678 168.837 304.537 169.751C305.405 170.657 305.839 171.865 305.839 173.377C305.839 174.861 305.395 176.075 304.509 177.017C303.631 177.96 302.423 178.431 300.883 178.431ZM298.965 168.967V177.843H300.883C302.227 177.843 303.272 177.437 304.019 176.625C304.775 175.804 305.153 174.721 305.153 173.377C305.153 172.024 304.779 170.951 304.033 170.157C303.295 169.364 302.245 168.967 300.883 168.967H298.965ZM312.124 178.431V176.947C311.928 177.451 311.602 177.848 311.144 178.137C310.696 178.427 310.174 178.571 309.576 178.571C308.82 178.571 308.214 178.38 307.756 177.997C307.308 177.605 307.084 177.083 307.084 176.429C307.084 174.983 308.214 174.259 310.472 174.259C310.892 174.259 311.434 174.287 312.096 174.343V173.657C312.096 172.967 311.924 172.43 311.578 172.047C311.233 171.665 310.752 171.473 310.136 171.473C309.483 171.473 308.96 171.669 308.568 172.061C308.176 172.453 307.976 172.981 307.966 173.643H307.364C307.374 172.831 307.63 172.183 308.134 171.697C308.638 171.203 309.301 170.955 310.122 170.955C310.944 170.955 311.583 171.189 312.04 171.655C312.498 172.113 312.726 172.757 312.726 173.587V178.431H312.124ZM307.728 176.415C307.728 176.91 307.901 177.311 308.246 177.619C308.601 177.918 309.063 178.067 309.632 178.067C310.379 178.067 310.976 177.834 311.424 177.367C311.872 176.891 312.096 176.266 312.096 175.491V174.805C311.536 174.749 311.004 174.721 310.5 174.721C308.652 174.721 307.728 175.286 307.728 176.415ZM315.574 174.371V178.431H314.93V171.095H315.546V172.859C315.789 172.281 316.157 171.819 316.652 171.473C317.156 171.128 317.711 170.955 318.318 170.955V171.641C317.543 171.632 316.89 171.889 316.358 172.411C315.835 172.925 315.574 173.578 315.574 174.371ZM320.236 178.431H319.592V168.379H320.236V174.609L324.072 171.095H324.87L320.936 174.707L325.164 178.431H324.282L320.236 174.861V178.431ZM332.409 174.581H329.945V178.431H329.259V168.379H332.409C333.398 168.379 334.196 168.655 334.803 169.205C335.419 169.747 335.727 170.503 335.727 171.473C335.727 172.444 335.424 173.205 334.817 173.755C334.21 174.306 333.408 174.581 332.409 174.581ZM332.395 168.967H329.945V174.007H332.395C333.207 174.007 333.851 173.788 334.327 173.349C334.812 172.901 335.055 172.281 335.055 171.487C335.055 170.685 334.817 170.064 334.341 169.625C333.865 169.187 333.216 168.967 332.395 168.967ZM341.792 178.431V176.947C341.596 177.451 341.27 177.848 340.812 178.137C340.364 178.427 339.842 178.571 339.244 178.571C338.488 178.571 337.882 178.38 337.424 177.997C336.976 177.605 336.752 177.083 336.752 176.429C336.752 174.983 337.882 174.259 340.14 174.259C340.56 174.259 341.102 174.287 341.764 174.343V173.657C341.764 172.967 341.592 172.43 341.246 172.047C340.901 171.665 340.42 171.473 339.804 171.473C339.151 171.473 338.628 171.669 338.236 172.061C337.844 172.453 337.644 172.981 337.634 173.643H337.032C337.042 172.831 337.298 172.183 337.802 171.697C338.306 171.203 338.969 170.955 339.79 170.955C340.612 170.955 341.251 171.189 341.708 171.655C342.166 172.113 342.394 172.757 342.394 173.587V178.431H341.792ZM337.396 176.415C337.396 176.91 337.569 177.311 337.914 177.619C338.269 177.918 338.731 178.067 339.3 178.067C340.047 178.067 340.644 177.834 341.092 177.367C341.54 176.891 341.764 176.266 341.764 175.491V174.805C341.204 174.749 340.672 174.721 340.168 174.721C338.32 174.721 337.396 175.286 337.396 176.415ZM348.084 177.829V178.403C347.776 178.515 347.473 178.571 347.174 178.571C346.558 178.571 346.064 178.408 345.69 178.081C345.317 177.745 345.13 177.209 345.13 176.471V171.627H343.324V171.095H345.13V168.911H345.788V171.095H348.154V171.627H345.788V176.345C345.788 177.428 346.278 177.969 347.258 177.969C347.557 177.969 347.832 177.923 348.084 177.829ZM353.512 177.829V178.403C353.204 178.515 352.901 178.571 352.602 178.571C351.986 178.571 351.491 178.408 351.118 178.081C350.745 177.745 350.558 177.209 350.558 176.471V171.627H348.752V171.095H350.558V168.911H351.216V171.095H353.582V171.627H351.216V176.345C351.216 177.428 351.706 177.969 352.686 177.969C352.985 177.969 353.26 177.923 353.512 177.829ZM357.678 178.585C356.68 178.585 355.872 178.231 355.256 177.521C354.64 176.803 354.332 175.86 354.332 174.693C354.332 173.62 354.64 172.729 355.256 172.019C355.882 171.31 356.666 170.955 357.608 170.955C358.616 170.955 359.414 171.324 360.002 172.061C360.6 172.789 360.875 173.741 360.828 174.917H354.976C355.023 175.879 355.284 176.644 355.76 177.213C356.246 177.773 356.885 178.053 357.678 178.053C358.36 178.053 358.92 177.871 359.358 177.507C359.806 177.134 360.096 176.616 360.226 175.953H360.856C360.707 176.756 360.348 177.395 359.778 177.871C359.209 178.347 358.509 178.585 357.678 178.585ZM357.608 171.459C356.871 171.459 356.26 171.735 355.774 172.285C355.289 172.827 355.028 173.536 354.99 174.413H360.156C360.11 173.489 359.858 172.766 359.4 172.243C358.952 171.721 358.355 171.459 357.608 171.459ZM363.207 174.371V178.431H362.563V171.095H363.179V172.859C363.421 172.281 363.79 171.819 364.285 171.473C364.789 171.128 365.344 170.955 365.951 170.955V171.641C365.176 171.632 364.523 171.889 363.991 172.411C363.468 172.925 363.207 173.578 363.207 174.371ZM367.869 174.063V178.431H367.225V171.095H367.841V172.593C368.065 172.099 368.396 171.702 368.835 171.403C369.283 171.105 369.777 170.955 370.319 170.955C371.103 170.955 371.719 171.193 372.167 171.669C372.615 172.136 372.839 172.799 372.839 173.657V178.431H372.195V173.895C372.195 173.13 372.017 172.542 371.663 172.131C371.317 171.711 370.818 171.501 370.165 171.501C369.53 171.501 368.989 171.749 368.541 172.243C368.093 172.738 367.869 173.345 367.869 174.063Z" fill="black"/>
</g>
</g>
<defs>
<filter id="filter0_d_95_26290" x="214.9" y="76.9" width="241.2" height="124.631" filterUnits="userSpaceOnUse" color-interpolation-filters="sRGB">
<feFlood flood-opacity="0" result="BackgroundImageFix"/>
<feColorMatrix in="SourceAlpha" type="matrix" values="0 0 0 0 0 0 0 0 0 0 0 0 0 0 0 0 0 0 127 0" result="hardAlpha"/>
<feOffset/>
<feGaussianBlur stdDeviation="9.55"/>
<feComposite in2="hardAlpha" operator="out"/>
<feColorMatrix type="matrix" values="0 0 0 0 1 0 0 0 0 1 0 0 0 0 1 0 0 0 1 0"/>
<feBlend mode="normal" in2="BackgroundImageFix" result="effect1_dropShadow_95_26290"/>
<feBlend mode="normal" in="SourceGraphic" in2="effect1_dropShadow_95_26290" result="shape"/>
</filter>
<linearGradient id="paint0_linear_95_26290" x1="611.75" y1="0" x2="611.75" y2="300" gradientUnits="userSpaceOnUse">
<stop stop-color="#F3E7E9"/>
<stop offset="1" stop-color="#DAD4EC"/>
</linearGradient>
<clipPath id="clip0_95_26290">
<rect width="670.667" height="300" fill="white"/>
</clipPath>
</defs>
</svg>
